<svg width="140" height="141" viewBox="0 0 140 141" fill="none" xmlns="http://www.w3.org/2000/svg">
<path d="M82.3919 55.0843C86.2008 55.0843 89.2886 52.0528 89.2886 48.3132C89.2886 44.5736 86.2008 41.5421 82.3919 41.5421C78.5829 41.5421 75.4951 44.5736 75.4951 48.3132C75.4951 52.0528 78.5829 55.0843 82.3919 55.0843Z" fill="#FFDD00"/>
<path d="M122.801 98.8697C120.207 97.5235 117.054 98.592 115.09 100.756C111.666 104.529 107.434 106.446 104.608 107.376C104.927 100.131 109.082 84.5734 114.679 67.6841L116.734 67.6873C120.546 67.6932 123.641 64.608 123.646 60.7962L123.651 58.0674C123.654 55.758 121.783 53.8839 119.474 53.8839C120.109 52.1319 120.751 50.3851 121.398 48.6518C122.766 44.9899 120.944 40.8881 117.286 39.5091C113.692 38.1542 109.673 39.9405 108.308 43.531C106.954 47.0931 105.679 50.5336 104.48 53.856L102.318 53.8527C98.5066 53.8468 95.4119 56.9321 95.406 60.7438L95.402 63.3164C95.3983 65.7121 97.3394 67.6562 99.7351 67.6562C96.5673 77.4118 94.2518 85.8565 92.7957 92.9623L92.7531 92.9414C88.804 100.48 81.4172 105.131 77.3047 107.251C77.0376 100.586 80.1486 85.3687 85.0087 69.7117C86.1671 65.9799 84.176 61.9653 80.4647 60.7429C76.8094 59.5391 72.8575 61.4988 71.6866 65.1648C69.0254 73.4971 66.588 82.2889 65.0596 90.3961C62.9714 95.1868 57.7083 100.473 55.1584 103.039L54.4197 103.785C52.3528 105.877 50.1013 107.32 47.9065 107.962C46.2374 108.45 44.4546 108.283 43.5597 107.55C42.5085 106.693 41.4076 103.157 40.7967 101.191C47.523 92.7531 53.7521 82.8231 59.5763 71.2962C63.1632 64.1974 65.6207 56.9312 66.885 49.7208C68.3766 41.2064 69.165 32.3504 64.8678 25.2376C61.1318 19.0453 54.3487 16.2978 47.9705 18.3898C43.3679 19.91 40.3421 23.306 38.4741 25.7257C34.0704 31.4229 30.7535 38.3334 28.0402 47.4545C24.9079 57.9703 21.5555 73.6393 23.3382 88.5273C23.6934 91.4561 24.29 94.5034 25.2134 97.99C21.938 101.612 18.5469 104.854 15.0299 107.728C12.0208 110.187 11.2102 114.566 13.4567 117.737C15.6462 120.827 19.9247 121.612 22.8921 119.259C25.4197 117.254 27.8848 115.095 30.2918 112.78C31.3501 114.747 32.7138 116.623 34.5534 118.136C39.1205 121.881 45.6124 123.024 51.9125 121.183C56.3588 119.893 60.6559 117.243 64.3635 113.534C64.9957 115.828 65.9617 117.731 67.3396 119.119C69.3923 121.183 72.0771 122.264 75.0176 122.264C76.2748 122.264 77.5746 122.069 78.8957 121.671L79.3148 121.532C79.7267 121.379 85.3734 119.245 91.6806 114.6C92.1849 116.511 92.9378 118.017 93.9677 119.098C95.857 121.086 98.343 122.125 101.078 122.125C102.029 122.125 103.009 121.999 104.011 121.741C106.642 121.274 117.485 118.871 125.647 109.874C128.863 106.329 127.094 100.987 122.801 98.8697ZM41.5425 51.3387C43.7586 43.8772 46.3439 38.3962 49.6822 34.0867C50.9323 32.4689 51.742 31.8413 52.2037 31.5972C52.36 31.7228 52.5801 31.9529 52.779 32.2806C55.0235 35.9974 53.6242 43.9679 53.0276 47.3778C51.9977 53.2772 49.9592 59.2603 46.9832 65.1597C43.7657 71.5333 40.4274 77.3491 36.9684 82.6348C36.4712 71.3102 39.0921 59.5811 41.5496 51.3387H41.5425Z" fill="white"/>
</svg>
