<svg width="25" height="24" viewBox="0 0 25 24" fill="none" xmlns="http://www.w3.org/2000/svg">
  <path fill-rule="evenodd" clip-rule="evenodd" d="M7.25 2C5.04086 2 3.25 3.79086 3.25 6V18C3.25 20.2091 5.04086 22 7.25 22H17.25C19.4591 22 21.25 20.2091 21.25 18V6C21.25 3.79086 19.4591 2 17.25 2H7.25ZM6.25 7C6.25 6.44772 6.69772 6 7.25 6H17.25C17.8023 6 18.25 6.44772 18.25 7V10C18.25 10.5523 17.8023 11 17.25 11H7.25C6.69772 11 6.25 10.5523 6.25 10V7ZM6.95 13C6.5634 13 6.25 13.3134 6.25 13.7C6.25 14.0866 6.5634 14.4 6.95 14.4H17.55C17.9366 14.4 18.25 14.0866 18.25 13.7C18.25 13.3134 17.9366 13 17.55 13H6.95ZM6.25 17.1C6.25 16.7134 6.5634 16.4 6.95 16.4H13.55C13.9366 16.4 14.25 16.7134 14.25 17.1C14.25 17.4866 13.9366 17.8 13.55 17.8H6.95C6.5634 17.8 6.25 17.4866 6.25 17.1Z" fill="currentColor"/>
</svg>