<svg xmlns="http://www.w3.org/2000/svg" width="25" height="24" viewBox="0 0 25 24" fill="none">
  <path fill-rule="evenodd" clip-rule="evenodd" d="M21.75 10.1504V17.967C21.75 20.1944 19.9592 22.0001 17.75 22.0001H7.75003C5.54089 22.0001 3.75003 20.1944 3.75003 17.967V10.1504C3.75003 8.93948 4.28968 7.7926 5.21989 7.02663L10.2199 2.90945C11.6923 1.69699 13.8077 1.69699 15.2802 2.90945L20.2802 7.02663C21.2104 7.7926 21.75 8.93948 21.75 10.1504ZM10.75 17.2501C10.3358 17.2501 10 17.5859 10 18.0001C10 18.4143 10.3358 18.7501 10.75 18.7501H14.75C15.1642 18.7501 15.5 18.4143 15.5 18.0001C15.5 17.5859 15.1642 17.2501 14.75 17.2501H10.75Z" fill="currentColor"/>
</svg>