<svg width="64" height="64" viewBox="0 0 64 64" fill="none" xmlns="http://www.w3.org/2000/svg">
<g filter="url(#filter0_d_379_1113)">
<rect x="3" y="1" width="56" height="56" rx="28" fill="white" shape-rendering="crispEdges"/>
<rect x="3.2" y="1.2" width="55.6" height="55.6" rx="27.8" stroke="#181818" stroke-width="0.4" shape-rendering="crispEdges"/>
<path fill-rule="evenodd" clip-rule="evenodd" d="M42.6663 29.2656C42.6663 28.438 42.59 27.6434 42.4498 26.8795H31.238V31.3923H37.6452C37.3693 32.8508 36.5304 34.0861 35.2698 34.9137V37.8406H39.1178C41.3676 35.8095 42.6663 32.8189 42.6663 29.2656Z" fill="#3E82F1"/>
<path fill-rule="evenodd" clip-rule="evenodd" d="M31.2383 40.6662C34.4526 40.6662 37.1476 39.621 39.117 37.8394L35.2691 34.9126C34.2025 35.6127 32.8399 36.0259 31.2372 36.0259C28.1362 36.0259 25.5118 33.9739 24.5753 31.2164H20.5995V34.2388C22.5588 38.0515 26.584 40.6662 31.2383 40.6662Z" fill="#32A753"/>
<path fill-rule="evenodd" clip-rule="evenodd" d="M24.5763 31.2167C24.3385 30.5166 24.2028 29.7693 24.2028 28.9999C24.2028 28.2306 24.3385 27.4832 24.5763 26.7831V23.7606H20.5994C19.793 25.3356 19.3332 27.1172 19.3332 28.9999C19.3332 30.8826 19.793 32.6642 20.5994 34.2392L24.5763 31.2167Z" fill="#F9BB00"/>
<path fill-rule="evenodd" clip-rule="evenodd" d="M31.2383 21.9734C32.9857 21.9734 34.5558 22.5625 35.7895 23.7176L39.2045 20.371C37.142 18.4894 34.447 17.3331 31.2383 17.3331C26.584 17.3331 22.5588 19.9478 20.5995 23.7605L24.5765 26.783C25.5129 24.0254 28.1373 21.9734 31.2383 21.9734Z" fill="#E74133"/>
</g>
<defs>
<filter id="filter0_d_379_1113" x="0" y="0" width="64" height="64" filterUnits="userSpaceOnUse" color-interpolation-filters="sRGB">
<feFlood flood-opacity="0" result="BackgroundImageFix"/>
<feColorMatrix in="SourceAlpha" type="matrix" values="0 0 0 0 0 0 0 0 0 0 0 0 0 0 0 0 0 0 127 0" result="hardAlpha"/>
<feOffset dx="1" dy="3"/>
<feGaussianBlur stdDeviation="2"/>
<feComposite in2="hardAlpha" operator="out"/>
<feColorMatrix type="matrix" values="0 0 0 0 0 0 0 0 0 0 0 0 0 0 0 0 0 0 0.14 0"/>
<feBlend mode="normal" in2="BackgroundImageFix" result="effect1_dropShadow_379_1113"/>
<feBlend mode="normal" in="SourceGraphic" in2="effect1_dropShadow_379_1113" result="shape"/>
</filter>
</defs>
</svg>
