<svg width="64" height="64" viewBox="0 0 64 64" fill="none" xmlns="http://www.w3.org/2000/svg">
<g filter="url(#filter0_d_379_1121)">
<rect x="3" y="1" width="56" height="56" rx="28" fill="black" shape-rendering="crispEdges"/>
<path d="M39.9177 35.5171C39.5616 36.3323 39.1401 37.0827 38.6517 37.7726C37.9861 38.7131 37.441 39.3641 37.021 39.7256C36.3699 40.319 35.6722 40.6229 34.9252 40.6402C34.3889 40.6402 33.7421 40.4889 32.9892 40.1822C32.2339 39.8768 31.5397 39.7256 30.905 39.7256C30.2394 39.7256 29.5254 39.8768 28.7618 40.1822C27.997 40.4889 27.3809 40.6488 26.9099 40.6646C26.1935 40.6949 25.4794 40.3824 24.7667 39.7256C24.3117 39.3324 23.7427 38.6583 23.0611 37.7034C22.3297 36.6837 21.7284 35.5012 21.2574 34.1531C20.7529 32.697 20.5 31.2869 20.5 29.9218C20.5 28.3581 20.841 27.0094 21.5239 25.8793C22.0607 24.9714 22.7747 24.2553 23.6685 23.7296C24.5622 23.2039 25.5278 22.936 26.5677 22.9189C27.1367 22.9189 27.8829 23.0933 28.8102 23.4361C29.7349 23.78 30.3286 23.9545 30.5889 23.9545C30.7835 23.9545 31.4431 23.7505 32.5612 23.3439C33.6185 22.9668 34.5109 22.8107 35.242 22.8722C37.223 23.0307 38.7113 23.8045 39.7011 25.1987C37.9294 26.2625 37.053 27.7525 37.0704 29.6639C37.0864 31.1527 37.6314 32.3916 38.7026 33.3754C39.188 33.8319 39.7302 34.1848 40.3333 34.4354C40.2025 34.8113 40.0645 35.1714 39.9177 35.5171ZM35.3743 17.8001C35.3743 18.967 34.9441 20.0566 34.0865 21.0651C33.0517 22.264 31.8 22.9568 30.4427 22.8474C30.4254 22.7075 30.4154 22.5601 30.4154 22.4053C30.4154 21.285 30.9075 20.0861 31.7814 19.1059C32.2177 18.6096 32.7727 18.1969 33.4456 17.8677C34.1171 17.5434 34.7522 17.364 35.3496 17.3333C35.367 17.4893 35.3743 17.6453 35.3743 17.8001Z" fill="white"/>
</g>
<defs>
<filter id="filter0_d_379_1121" x="0" y="0" width="64" height="64" filterUnits="userSpaceOnUse" color-interpolation-filters="sRGB">
<feFlood flood-opacity="0" result="BackgroundImageFix"/>
<feColorMatrix in="SourceAlpha" type="matrix" values="0 0 0 0 0 0 0 0 0 0 0 0 0 0 0 0 0 0 127 0" result="hardAlpha"/>
<feOffset dx="1" dy="3"/>
<feGaussianBlur stdDeviation="2"/>
<feComposite in2="hardAlpha" operator="out"/>
<feColorMatrix type="matrix" values="0 0 0 0 0 0 0 0 0 0 0 0 0 0 0 0 0 0 0.14 0"/>
<feBlend mode="normal" in2="BackgroundImageFix" result="effect1_dropShadow_379_1121"/>
<feBlend mode="normal" in="SourceGraphic" in2="effect1_dropShadow_379_1121" result="shape"/>
</filter>
</defs>
</svg>
