<svg width="25" height="24" viewBox="0 0 25 24" fill="none" xmlns="http://www.w3.org/2000/svg">
<path fill-rule="evenodd" clip-rule="evenodd" d="M12.75 18.0165C11.4556 18.015 10.2147 17.5002 9.29947 16.5849C8.38423 15.6697 7.86939 14.4288 7.86791 13.1344C7.86915 11.8399 8.38387 10.5988 9.29914 9.68332C10.2144 8.76787 11.4555 8.25291 12.75 8.25143C14.0445 8.25291 15.2855 8.76787 16.2008 9.68332C17.1161 10.5988 17.6308 11.8399 17.632 13.1344C17.6306 14.4288 17.1157 15.6697 16.2005 16.5849C15.2852 17.5002 14.0443 18.015 12.75 18.0165M20.3002 5.79644H17.5511L16.5153 3.77791C16.351 3.45836 16.1019 3.19028 15.7952 3.00311C15.4885 2.81595 15.1362 2.71695 14.7769 2.717H10.67C10.3037 2.71695 9.94468 2.81989 9.63401 3.01405C9.32334 3.20822 9.07351 3.48581 8.91301 3.81513L7.94888 5.79644H5.19981C4.89176 5.79632 4.5867 5.85689 4.30206 5.97469C4.01742 6.09249 3.75878 6.26521 3.54091 6.483C3.32305 6.70078 3.15022 6.95935 3.0323 7.24394C2.91439 7.52853 2.8537 7.83357 2.8537 8.14162V18.9378C2.8537 19.2459 2.91439 19.5509 3.0323 19.8355C3.15022 20.1201 3.32305 20.3787 3.54091 20.5964C3.75878 20.8142 4.01742 20.9869 4.30206 21.1047C4.5867 21.2225 4.89176 21.2831 5.19981 21.283H20.3002C20.6082 21.2831 20.9133 21.2225 21.1979 21.1047C21.4825 20.9869 21.7412 20.8142 21.959 20.5964C22.1769 20.3787 22.3497 20.1201 22.4677 19.8355C22.5856 19.5509 22.6463 19.2459 22.6463 18.9378V8.14162C22.6463 7.83357 22.5856 7.52853 22.4677 7.24394C22.3497 6.95935 22.1769 6.70078 21.959 6.483C21.7412 6.26521 21.4825 6.09249 21.1979 5.97469C20.9133 5.85689 20.6082 5.79632 20.3002 5.79644" fill="currentColor"/>
<path fill-rule="evenodd" clip-rule="evenodd" d="M12.7624 10.0011C11.9345 10.0021 11.1407 10.3315 10.5554 10.917C9.97003 11.5026 9.64088 12.2964 9.64014 13.1243C9.64063 13.9523 9.96971 14.7463 10.5551 15.3319C11.1405 15.9175 11.9344 16.2468 12.7624 16.2475C13.5904 16.2468 14.3843 15.9175 14.9697 15.3319C15.5551 14.7463 15.8841 13.9523 15.8846 13.1243C15.8839 12.2964 15.5547 11.5026 14.9694 10.917C14.384 10.3315 13.5903 10.0021 12.7624 10.0011Z" fill="currentColor"/>
</svg>
